<svg xmlns="http://www.w3.org/2000/svg" viewBox="0 0 120 160"><defs><style>.cls-1{fill:#9fa0a0;} .mainfill{fill:#9fa0a0;} </style></defs><title>mustache</title><g id="mustache"><path class="cls-1 mainfill" d="M73.71,87.35c-4.34-5.56-13.54-5-13.54-5v0s-9.19-.59-13.53,5c-4.82,6.18-1.51,21.83,9.49,23.28l4,.47,4-.47C75.22,109.18,78.53,93.53,73.71,87.35Zm-1.85,3.38a8.46,8.46,0,0,1-2.57,9.75,4.05,4.05,0,0,1-2.32,1c-3.08,0-4.42-1.5-6.8-1.5s-3.71,1.5-6.8,1.5a3.81,3.81,0,0,1-2-.79,8.61,8.61,0,0,1-3.19-9.28c1.47-5.83,6-6.92,11.7-6.92C65.22,84.46,70,85.76,71.86,90.73Z"/></g></svg>