<svg xmlns="http://www.w3.org/2000/svg" viewBox="0 0 120 160"><defs><style>.cls-1{fill:#3d3736;} .mainfill{fill:#3d3736;} </style></defs><title>mustache</title><g id="mustache"><path class="cls-1 mainfill" d="M53.69,111.33a1,1,0,0,1-1-1v-5.65a1,1,0,1,1,2,0v5.65A1,1,0,0,1,53.69,111.33Z"/><path class="cls-1 mainfill" d="M56.84,111.33a1,1,0,0,1-1-1v-5.65a1,1,0,1,1,2,0v5.65A1,1,0,0,1,56.84,111.33Z"/><path class="cls-1 mainfill" d="M60,111.33a1,1,0,0,1-1-1v-5.65a1,1,0,1,1,2,0v5.65A1,1,0,0,1,60,111.33Z"/><path class="cls-1 mainfill" d="M63.16,111.33a1,1,0,0,1-1-1v-5.65a1,1,0,1,1,2,0v5.65A1,1,0,0,1,63.16,111.33Z"/><path class="cls-1 mainfill" d="M66.31,111.33a1,1,0,0,1-1-1v-5.65a1,1,0,1,1,2,0v5.65A1,1,0,0,1,66.31,111.33Z"/></g></svg>