<svg xmlns="http://www.w3.org/2000/svg" viewBox="0 0 120 160"><defs><style>.cls-1{fill:#3d3736;} .mainfill{fill:#3d3736;} </style></defs><title>mustache</title><g id="mustache"><path class="cls-1 mainfill" d="M52.75,83.4a1,1,0,0,0-1.37.35L49.46,87a1,1,0,1,0,1.72,1l1.92-3.21A1,1,0,0,0,52.75,83.4Z"/><path class="cls-1 mainfill" d="M56.72,83.4a1,1,0,0,0-1.37.35L53.43,87a1,1,0,1,0,1.72,1l1.92-3.21A1,1,0,0,0,56.72,83.4Z"/><path class="cls-1 mainfill" d="M70.89,87,69,83.75a1,1,0,0,0-1.72,1L69.17,88a1,1,0,1,0,1.72-1Z"/><path class="cls-1 mainfill" d="M65,83.75a1,1,0,1,0-1.72,1L65.2,88a1,1,0,1,0,1.72-1Z"/><path class="cls-1 mainfill" d="M61,83.75l0,0a2.1,2.1,0,0,0-.28-.28l0,0a.94.94,0,0,0-.13,0,1,1,0,0,0-.19-.07H60a1,1,0,0,0-.19.07.94.94,0,0,0-.13,0l0,0a2.07,2.07,0,0,0-.28.28l0,0L57.4,87a1,1,0,1,0,1.72,1l1.06-1.77L61.23,88a1,1,0,1,0,1.72-1Z"/></g></svg>