<svg xmlns="http://www.w3.org/2000/svg" viewBox="0 0 120 160">
    <defs>
        <style>
            .cls-1{fill:#fff;opacity:0.3;}.cls-2{fill:#3d3736;} .mainfill{fill:#3d3736;} .subfill{fill:#fff;}
        </style>
    </defs>
    <title>
        eyeglasses
    </title>
    <g id="eyeglasses">
        <g id="glasses">
            <path d="M54.41,66.88c-.75,4.28-8.08,5.61-10.87,5.61s-8.79,0-10.87-5.61c-1.47-4,2.67-7,10.88-7S55.14,62.73,54.41,66.88Z" class="cls-1 subfill"/>
            <path d="M64.95,66.88c.75,4.28,8.08,5.61,10.88,5.61s8.79,0,10.88-5.61c1.47-4-2.67-7-10.87-7S64.22,62.73,64.95,66.88Z" class="cls-1 subfill"/>
        </g>
        <path id="_frames" d="M94.51,63.52H87.6a4.85,4.85,0,0,0-.45-.82c-1.7-2.45-5.72-3.79-11.32-3.79C70.57,58.91,67,60,65.14,62.2a5.53,5.53,0,0,0-.47.66h-10a5.53,5.53,0,0,0-.47-.66c-1.83-2.18-5.42-3.29-10.68-3.29-5.6,0-9.62,1.35-11.32,3.79a4.85,4.85,0,0,0-.45.82H25.49a1,1,0,1,0,0,2h5.88a5.46,5.46,0,0,0,.35,1.71,1,1,0,0,0,.94.65,1,1,0,0,0,.35-.06,1,1,0,0,0,.59-1.29,2.75,2.75,0,0,1,.26-2.69c1.28-1.84,4.9-2.93,9.68-2.93,5.77,0,8.16,1.4,9.15,2.58a3.73,3.73,0,0,1,.74,3.22,1,1,0,1,0,2,.35,6.58,6.58,0,0,0,0-2.2h8.51a6.58,6.58,0,0,0,0,2.2,1,1,0,0,0,2-.35,3.73,3.73,0,0,1,.74-3.22c1-1.17,3.37-2.58,9.15-2.58,4.78,0,8.4,1.1,9.68,2.93a2.75,2.75,0,0,1,.26,2.69,1,1,0,0,0,.59,1.29,1,1,0,0,0,.35.06,1,1,0,0,0,.94-.65A5.46,5.46,0,0,0,88,65.52h6.52a1,1,0,1,0,0-2Z" class="cls-2 mainfill" data-name=" frames"/>
    </g>
</svg>
