<svg xmlns="http://www.w3.org/2000/svg" viewBox="0 0 120 160">
    <defs>
        <style>
            .cls-1{fill:#fff;opacity:0.3;}.cls-2{fill:#3d3736;} .mainfill{fill:#3d3736;} .subfill{fill:#fff;}
        </style>
    </defs>
    <title>
        eyeglasses
    </title>
    <g id="eyeglasses">
        <g id="glasses">
            <path d="M51.95,60.54a28.35,28.35,0,0,0-16-.09A4.23,4.23,0,0,0,33,65c.45,3.67,2.2,9,10.64,9,9,0,10.88-4.63,11.44-8.52A4.46,4.46,0,0,0,51.95,60.54Z" class="cls-1 subfill"/>
            <path d="M69.17,60.54a28.35,28.35,0,0,1,16-.09A4.23,4.23,0,0,1,88.08,65c-.45,3.67-2.2,9-10.64,9-9,0-10.88-4.63-11.44-8.52A4.46,4.46,0,0,1,69.17,60.54Z" class="cls-1 subfill"/>
        </g>
        <path id="_frames" d="M94.92,63.55H89.58a5.74,5.74,0,0,0-4-4.6A29.84,29.84,0,0,0,68.75,59a6,6,0,0,0-4.21,4.52h-8A6,6,0,0,0,52.37,59a29.83,29.83,0,0,0-16.86-.08,5.74,5.74,0,0,0-4,4.6H26.2V67.8H32c1.87,6.33,7.22,7.76,11.66,7.76,6.92,0,11-2.55,12.54-7.76h8.69c1.5,5.21,5.62,7.76,12.54,7.76,4.44,0,9.79-1.43,11.66-7.76h5.81ZM53.56,65.26c-.51,3.55-2.08,7.18-9.89,7.18-7.31,0-8.69-4.33-9.08-7.59a2.67,2.67,0,0,1,1.83-2.91,24.63,24.63,0,0,1,7.16-1A29.24,29.24,0,0,1,51.52,62,2.9,2.9,0,0,1,53.56,65.26Zm33-.41c-.4,3.26-1.77,7.59-9.08,7.59-7.81,0-9.38-3.63-9.89-7.18a2.9,2.9,0,0,1,2-3.21,29.24,29.24,0,0,1,7.94-1.13,24.63,24.63,0,0,1,7.16,1A2.67,2.67,0,0,1,86.53,64.85Z" class="cls-2 mainfill" data-name=" frames"/>
    </g>
</svg>
