<svg xmlns="http://www.w3.org/2000/svg" viewBox="0 0 120 160">
    <defs>
        <style>
            .cls-1{fill:#fff;opacity:0.3;}.cls-2{fill:#3d3736;} .mainfill{fill:#3d3736;} .subfill{fill:#fff;}
        </style>
    </defs>
    <title>
        eyeglasses
    </title>
    <g id="eyeglasses">
        <g id="glasses">
            <path d="M52.28,62.89a34.44,34.44,0,0,0-15.91-1.47,3.51,3.51,0,0,0-3.25,3.49c.19,3,1.56,7.49,10,8.23,9,.79,11.17-2.82,12-5.95C55.55,65.43,54.37,63.57,52.28,62.89Z" class="cls-1 subfill"/>
            <path d="M68.69,62.89A34.44,34.44,0,0,1,84.6,61.43a3.51,3.51,0,0,1,3.25,3.49c-.19,3-1.56,7.49-10,8.23-9,.79-11.17-2.82-12-5.95C65.42,65.43,66.6,63.57,68.69,62.89Z" class="cls-1 subfill"/>
        </g>
        <path id="_frames" d="M94.84,65.21h-6c0-.08,0-.15,0-.23a4.48,4.48,0,0,0-4.09-4.54,35.39,35.39,0,0,0-16.37,1.5,5.36,5.36,0,0,0-3,2.27H55.55a5.36,5.36,0,0,0-3-2.27,35.36,35.36,0,0,0-16.37-1.5A4.48,4.48,0,0,0,32.12,65c0,.08,0,.16,0,.23h-6v2h6.36c1.11,4.08,4.63,6.41,10.5,6.93.88.08,1.7.11,2.46.11,7.81,0,9.8-3.81,10.59-6.8a4,4,0,0,0,.11-1.24h8.65a4,4,0,0,0,.11,1.24c1.22,4.61,4.6,6.8,10.54,6.8q1.19,0,2.51-.12c5.88-.51,9.39-2.84,10.5-6.93h6.36ZM54.12,66.94c-.75,2.81-2.66,5.93-10.95,5.21-8.65-.76-8.95-5.68-9-7.29a2.53,2.53,0,0,1,2.4-2.44,29.46,29.46,0,0,1,4.58-.35A35.22,35.22,0,0,1,52,63.85C53.53,64.35,54.45,65.68,54.12,66.94ZM77.8,72.15c-8.29.72-10.2-2.4-10.95-5.21-.33-1.26.59-2.59,2.15-3.09a33.31,33.31,0,0,1,15.45-1.43,2.53,2.53,0,0,1,2.4,2.44C86.75,66.47,86.45,71.39,77.8,72.15Z" class="cls-2 mainfill" data-name=" frames"/>
    </g>
</svg>
