<svg xmlns="http://www.w3.org/2000/svg" viewBox="0 0 120 160">
    <defs>
        <style>
            .cls-1{opacity:0.3;}.cls-2{fill:#fff;}.cls-3{fill:#3d3736;} .mainfill{fill:#3d3736;} .subfill{fill:#fff;}
        </style>
    </defs>
    <title>
        eyeglasses
    </title>
    <g id="eyeglasses">
        <g id="glasses" class="cls-1">
            <path d="M49.67,60.62c-4.2,0-10.47-.44-13.81.08a3.59,3.59,0,0,0-3.25,3.49c0,7.53,2.55,11.09,11,11.17,8.93.08,10.63-6.18,10.63-10.87C54.22,62.65,53.06,60.62,49.67,60.62Z" class="cls-2 subfill"/>
            <path d="M70.48,60.62c4.2,0,10.47-.44,13.81.08a3.59,3.59,0,0,1,3.25,3.49c0,7.53-2.55,11.09-11,11.17-8.93.08-10.63-6.18-10.63-10.87C65.93,62.65,67.09,60.62,70.48,60.62Z" class="cls-2 subfill"/>
        </g>
        <path id="_frames" d="M94.33,64.48h-5.8c0-.1,0-.19,0-.3a4.59,4.59,0,0,0-4.09-4.48,62.75,62.75,0,0,0-9.74-.18c-1.5,0-3,.08-4.22.08-3.5,0-5.07,1.91-5.45,3.87H55.12c-.39-2-2-3.87-5.45-3.87-1.27,0-2.72,0-4.22-.08a62.65,62.65,0,0,0-9.74.18,4.59,4.59,0,0,0-4.09,4.48c0,.1,0,.19,0,.3h-6v2h6.1c.61,6.9,4.17,9.8,11.87,9.87h.18c3.57,0,6.38-1,8.33-2.92a11.77,11.77,0,0,0,3.09-8H65a11.77,11.77,0,0,0,3.09,8c2,1.94,4.75,2.92,8.33,2.92h.18c7.69-.07,11.26-3,11.87-9.87h5.9ZM50.68,72c-1.59,1.58-4,2.38-7.08,2.34-7.37-.07-10-2.73-10-10.17a2.6,2.6,0,0,1,2.4-2.5,31.58,31.58,0,0,1,4.54-.25c1.57,0,3.25,0,4.83.09s3,.08,4.28.08c3.21,0,3.55,2,3.55,2.87C53.22,66.77,52.78,69.94,50.68,72Zm25.86,2.34c-3.08.06-5.49-.76-7.08-2.34-2.1-2.08-2.54-5.24-2.54-7.54,0-.86.35-2.87,3.55-2.87,1.28,0,2.75,0,4.28-.08s3.26-.09,4.83-.09a31.58,31.58,0,0,1,4.54.25,2.6,2.6,0,0,1,2.4,2.5C86.53,71.62,83.92,74.29,76.54,74.35Z" class="cls-3 mainfill" data-name=" frames"/>
    </g>
</svg>
