<svg xmlns="http://www.w3.org/2000/svg" viewBox="0 0 120 160">
    <defs>
        <style>
            .cls-1{opacity:0.3;}.cls-2{fill:#fff;}.cls-3{fill:#3d3736;} .mainfill{fill:#3d3736;} .subfill{fill:#fff;}
        </style>
    </defs>
    <title>
        eyeglasses
    </title>
    <g id="eyeglasses">
        <g id="glasses" class="cls-1">
            <path d="M52,62.4a34.44,34.44,0,0,0-16-.5,3.68,3.68,0,0,0-3,3.68c0,.37,0,.92,0,1.44a4.6,4.6,0,0,0,1.5,3.25c1.74,1.55,4.7,2.81,8.9,2.92,9,.24,11-3.49,11.62-6.66C55.41,64.73,54.12,63,52,62.4Z" class="cls-2 subfill"/>
            <path d="M68.78,62.4a34.44,34.44,0,0,1,16-.5,3.51,3.51,0,0,1,3,3.68c-.37,3-2,7.38-10.44,7.61-9,.24-11-3.49-11.62-6.66C65.36,64.73,66.65,63,68.78,62.4Z" class="cls-2 subfill"/>
        </g>
        <path id="_frames" d="M88.11,60.68l-.09,0c-.52-.17-.83-.25-.83-.25A44.19,44.19,0,0,0,66.69,61,5.33,5.33,0,0,0,63,64h-5.1a5.33,5.33,0,0,0-3.67-3c-9-2.33-21.89-2.31-28.14,3.59v2a51,51,0,0,0,10,6.91,19.88,19.88,0,0,0,7.16,1.34c10.18.27,13.35-3.4,14.53-7.06h0s.46-1.17,2.68-1.17,2.68,1.17,2.68,1.17h0c1.17,3.66,4.35,7.33,14.53,7.06a19.88,19.88,0,0,0,7.16-1.34,23,23,0,0,0,10-6.91v-2C92.91,62.48,89.69,61.21,88.11,60.68ZM55.05,66.53c-.64,3.17-2.6,6.9-11.62,6.66-4.2-.11-7.16-1.37-8.9-2.92A4.6,4.6,0,0,1,33,67c0-.52,0-1.07,0-1.44a3.68,3.68,0,0,1,3-3.68,34.44,34.44,0,0,1,16,.5C54.12,63,55.41,64.73,55.05,66.53Zm32.73-.95c-.37,3-2,7.38-10.44,7.61-9,.24-11-3.49-11.62-6.66-.36-1.79.93-3.57,3.06-4.12a34.44,34.44,0,0,1,16-.5A3.51,3.51,0,0,1,87.78,65.58Z" class="cls-3 mainfill" data-name=" frames"/>
    </g>
</svg>
