<svg xmlns="http://www.w3.org/2000/svg" viewBox="0 0 120 160"><defs><style>.cls-1{fill:#3e3a39;stroke:#3d3736;stroke-linecap:round;stroke-linejoin:round;stroke-width:3.13px;} .mainfill{fill:#3e3a39;} </style></defs><title>male_hair</title><g id="front"><path class="cls-1 mainfill" d="M91.44,22.79c-6.27-5.92-12.31-5.32-12.31-5.32S77.37,8.46,60,9C32.16,10,16.93,31.31,19.2,53.74a72.64,72.64,0,0,0,1.29,7.34c-3.59,3-6.16,4.8-6.16,4.8A8,8,0,0,0,20.84,64l.23-.35c.22.92.36,1.5.36,1.5a35.09,35.09,0,0,0,13.62-9.76A39.37,39.37,0,0,0,44,32.64c5.19-1.85,28.64.36,39.75,4.43C85.24,37.63,87.36,54,87.36,54L98.61,65.13a104.16,104.16,0,0,0,2.23-11.39C102.16,40.74,100.74,31.57,91.44,22.79Z"/></g></svg>