<svg xmlns="http://www.w3.org/2000/svg" viewBox="0 0 120 160"><defs><style>.cls-1{fill:#3e3a39;stroke:#3d3736;stroke-linecap:round;stroke-linejoin:round;stroke-width:3.13px;} .mainfill{fill:#3e3a39;} </style></defs><title>male_hair</title><g id="front"><path class="cls-1 mainfill" d="M91.8,22.32C85.53,16.4,79.49,17,79.49,17s-1.76-9-19.1-8.44c-27.86.92-43.09,22.27-40.82,44.7A104.18,104.18,0,0,0,21.8,64.66L34.32,53.49,37.1,43.3A11,11,0,0,1,44,35.82c.87-.31,1.85-.62,2.91-.92-.82,2.58-.64,6.55,3.71,11.87,0,0,1-10,9-13.72a59.3,59.3,0,0,1,9.45.55A21.53,21.53,0,0,1,86,46.67L90.3,56.92,99,64.66a104.18,104.18,0,0,0,2.23-11.39C102.52,40.27,101.1,31.1,91.8,22.32Z"/></g></svg>