<svg xmlns="http://www.w3.org/2000/svg" viewBox="0 0 120 160"><defs><style>.cls-1{fill:#3e3a39;stroke:#3d3736;stroke-linecap:round;stroke-linejoin:round;stroke-width:3.13px;} .mainfill{fill:#3e3a39;} </style></defs><title>male_hair</title><g id="front"><path class="cls-1 mainfill" d="M21.38,65.2s7.09-3,9.44-4.68c2.91-2.12,6.76-7.49,9-13.67,0,0,8.23,6.45,22.46,8.59,0,0-5.07-9-3.89-10.89,0,0,12.22,19,30.29,10.89.58,3.21,6.73,4.83,6.73,4.83l3.15,4.93s.9-3.58,1.58-7.19h0c5.86-6.43.53-13.95.53-13.95,2-12-5.14-15.5-5.14-15.5-.28-11.31-13.21-15.3-13.21-15.3v0c-3.24-3.39-8.18-4-9.62-4.16C60.65-.25,50.81,10,50.81,10c-9.72-2-11,3.8-11,3.8S24.4,15,24.4,28.58c0,0-10.33,7.07-5.48,16.32,0,0-3.43,11,.87,13.15h0c.68,3.6,1.58,7.16,1.58,7.16"/></g></svg>