<svg xmlns="http://www.w3.org/2000/svg" viewBox="0 0 120 160"><defs><style>.cls-1{fill:#3e3a39;stroke:#3d3736;stroke-linecap:round;stroke-linejoin:round;stroke-width:3.13px;} .mainfill{fill:#3e3a39;} </style></defs><title>male_hair</title><g id="front"><path class="cls-1 mainfill" d="M100.88,44.07c2-12-5.14-15.5-5.14-15.5-.28-11.31-13.21-15.3-13.21-15.3v0c-3.24-3.39-8.18-4-9.62-4.16C60.85-.25,51,10,51,10c-9.72-2-11,3.8-11,3.8S24.61,15,24.61,28.58c0,0-10.33,7.07-5.48,16.32,0,0-3.43,11,.87,13.15h0c.68,3.6,1.58,7.16,1.58,7.16l7.13-7.06s2-5.4,3.2-10L37,35.29l1.43,9.11s2.61-1.48,5.64-3.64c0,0,12.76,3.34,18.57-5.57l1.43,7.67C68,42,70.77,38.68,73,35.43c0,0,2.85,9,15.13,6.51C90,46.31,92,58.14,92,58.14l6.78,7.06s.9-3.58,1.58-7.19h0C106.21,51.59,100.88,44.07,100.88,44.07Z"/></g></svg>