<svg xmlns="http://www.w3.org/2000/svg" viewBox="0 0 120 160"><defs><style>.cls-1{fill:#3e3a39;stroke:#3d3736;stroke-linecap:round;stroke-linejoin:round;stroke-width:3.13px;} .mainfill{fill:#3e3a39;} </style></defs><title>male_hair</title><g id="back"><path class="cls-1 mainfill" d="M104.2,46.15C109.05,36.9,96,28.4,96,28.4c0-13.56-15.41-14.8-15.41-14.8s-1.27-5.75-11-3.8c0,0-9.84-10.22-21.9-.84-1.44.12-6.38.78-9.62,4.16v0s-12.93,4-13.21,15.3c0,0-9.67,3.49-7.7,15.5,0,0-5.52,13.06.34,19.49l-.17,2c.34,1.78,1.44,1.7,2.47,1.17l3.81,18.74h0a8.19,8.19,0,0,0,8.17,8.17h56.7a8.19,8.19,0,0,0,8.17-8.17h0L100,65.08a3.31,3.31,0,0,0,3.32-2.93V59.3C107.63,57.13,104.2,46.15,104.2,46.15Z"/></g><g id="front"><path class="cls-1 mainfill" d="M99.06,65s3.59.72,4.27-2.88V59.3c4.3-2.17.87-13.15.87-13.15C109.05,36.9,96,28.4,96,28.4c0-13.56-15.41-14.8-15.41-14.8s-1.27-5.75-11-3.8c0,0-9.84-10.22-21.9-.84-1.44.12-6.38.78-9.62,4.16v0s-12.93,4-13.21,15.3c0,0-9.67,3.49-7.7,15.5,0,0-5.52,13.06.34,19.49l-.17,2c.68,3.61,4.51-.4,4.51-.4L25,60.1s6-3.42,5-9.21c6.39,0,7.78-9,7.78-9,0,1.39,5.16,6,10,5.13,5-.89,7.81-3.39,9.06-6.39.89,1.71,6.38,4.74,10,4.11,3.79-.67,5.06-1.94,7-5.15,4.39-6.76,13.51-1.3,12.87,5.37A16.1,16.1,0,0,0,87,50.72,15.76,15.76,0,0,0,89.42,56C89,65,99.06,65,99.06,65"/></g></svg>