<svg xmlns="http://www.w3.org/2000/svg" viewBox="0 0 120 160"><defs><style>.cls-1{fill:#3e3a39;stroke:#3d3736;stroke-linecap:round;stroke-linejoin:round;stroke-width:3.13px;} .mainfill{fill:#3e3a39;} </style></defs><title>male_hair</title><g id="front"><path class="cls-1 mainfill" d="M24.79,56.68l9.67-8.36s.92-8,2.66-10.4c3.25-4.5,10-8.27,12.73-8.27,3.85,0,4.06,2.43,10.5,2.43s6.65-2.43,10.5-2.43c2.71,0,9.48,3.76,12.73,8.27,1.75,2.42,2.66,10.4,2.66,10.4l9.31,8.36s1.71-12.55-4.85-27.44A49.87,49.87,0,0,0,77.53,12.05c-.92-.63-1.54,2.82-2.8,1.5-1.8-1.88-3.78-3.92-5.42-4.68-.49-.22-1.14,2.66-3.26,1.89s-4.74-1.55-6-1.89c-1.29.34-3.61,1.13-5.73,1.89S51.53,8.65,51,8.88c-1.64.75-3.62,2.8-5.42,4.68-1.27,1.32-1.89-2.14-2.8-1.5A49.87,49.87,0,0,0,29.64,29.24C23.08,44.13,24.79,56.68,24.79,56.68Z"/></g></svg>