<svg xmlns="http://www.w3.org/2000/svg" viewBox="0 0 120 160"><defs><style>.cls-1{fill:#3e3a39;stroke:#3d3736;stroke-linecap:round;stroke-linejoin:round;stroke-width:3.13px;} .mainfill{fill:#3e3a39;} </style></defs><title>male_hair</title><g id="back"><path class="cls-1 mainfill" d="M104.36,55c0-25.21-18.34-45.62-44.1-45.62h-.18C34.33,9.34,16,29.51,16,55c0,9.31,3.21,15.17,6.18,18.61,0,0,2.34,19,8.55,24.81H89.29c6.21-5.83,8.47-24.81,8.47-24.81A28.09,28.09,0,0,0,104.36,55Z"/></g><g id="front"><path class="cls-1 mainfill" d="M104.36,55c0-25.21-18.34-45.63-44.1-45.63h-.18C34.33,9.34,16,29.51,16,55c0,17.32,11.13,22.74,11.13,22.74,0-9.58,7.29-30.09,13.11-36.91A16.17,16.17,0,0,1,43.08,44l3.38-7.55c1.05,3.16,2.53,6.15,4.39,7.33l4.53-7.25a17.14,17.14,0,0,0,4.53,8L60,43.24l.07,1.27a17.14,17.14,0,0,0,4.53-8l4.53,7.25c1.87-1.19,3.34-4.17,4.39-7.33L76.89,44a32.94,32.94,0,0,1,2.89-3.57c6,6.76,13.45,27.56,13.45,37.3C93.23,77.71,104.36,70.79,104.36,55Z"/></g></svg>