<svg xmlns="http://www.w3.org/2000/svg" viewBox="0 0 120 160"><defs><style>.cls-1{fill:#3e3a39;stroke:#3d3736;stroke-linecap:round;stroke-linejoin:round;stroke-width:3.13px;} .mainfill{fill:#3e3a39;} </style></defs><title>male_hair</title><g id="back"><path class="cls-1 mainfill" d="M102.77,54.41q0-.63,0-1.25a38.1,38.1,0,0,1,4.1.92C106.5,46.92,103.4,40.6,100.3,36l-4.4-5.64,5,2.1C92.86,14.1,78.12,14.63,78.12,14.63l7-4.65c-5.58-2-10.79,1.26-12.47,2.47C69.57,9.2,63.22,4,54.87,4.65c0,0,3.15,2.93,6.42,6.57-.65,0-15.53-5.89-25.32,1.13,0,0,4.16.88,8.8,2.3-1,.49-19.49,0-25.7,17.82,0,0,2.05-.91,5-2.1-3.56,3.92-10.42,12.89-11,23.73a52,52,0,0,1,5.58-1.17c-1.6,0-5.83,9.88-5.58,15.63,2.63-2.27,5-3.47,6.8-2.71L19.5,80.35c2,1.7,1.86,10.4,1.86,10.4L25,87.88s1.38,12.59,4.58,13.37l7.65-10.49H82l7.65,10.49c3.2-.77,4.58-13.37,4.58-13.37l3.64,2.88S97.7,82,99.73,80.35l.32-14.52c1.83-.77,4.18.43,6.8,2.71C107.05,64.15,104.64,57.38,102.77,54.41Z"/></g><g id="front"><path class="cls-1 mainfill" d="M100.93,32.45C92.86,14.1,78.12,14.63,78.12,14.63l7-4.65c-5.58-2-10.79,1.26-12.47,2.47C69.57,9.2,63.22,4,54.87,4.65c0,0,3.15,2.93,6.42,6.57-.65,0-15.53-5.89-25.32,1.13,0,0,4.16.88,8.8,2.3-1,.49-19.49,0-25.7,17.82,0,0,2.05-.91,5-2.1-3.56,3.92-10.42,12.89-11,23.73a52,52,0,0,1,5.58-1.17c-1.6,0-5.83,9.88-5.58,15.63,2.63-2.27,5-3.47,6.8-2.71L26.8,76,26.68,61.2s2.91-11.66,6.07-16.37c.27,3.13,1.7,2.53,3.69,3.59a18.41,18.41,0,0,1,9.7-10.31l-.49,4.66S53,43,57.22,38V43.1s7.17-.83,9.18-5.91c0,0,4.41.29,6.41,6.49,3.1-1,4.56-3,3.83-5.42,3.08,2.25,6,5,7.5,9.33l2.92-1.3c3,3.67,5.66,14.9,5.66,14.9L92.94,76l.37-.64L93.2,76l6.86-10.19c1.83-.77,4.18.43,6.8,2.71.2-4.39-2.22-11.15-4.09-14.13q0-.63,0-1.25a38.1,38.1,0,0,1,4.1.92C106.5,46.92,103.4,40.6,100.3,36l-4.4-5.64Z"/></g></svg>