<svg xmlns="http://www.w3.org/2000/svg" viewBox="0 0 120 160"><defs><style>.cls-1{fill:#3e3a39;stroke:#3d3736;stroke-linecap:round;stroke-linejoin:round;stroke-width:3.13px;} .mainfill{fill:#3e3a39;} </style></defs><title>male_hair</title><g id="front"><path class="cls-1 mainfill" d="M43.92,56.46c5.94-1.84,8.35-2.85,12.61-9.63,0,0-.23,6.3-2.72,8.8,0,0,14.57,1,20.56-12.32,0,0,5.5,10.45,7.69,13.38,3.88,5.18,8.68,5.23,8.68,5.23,2.78,7.19,2.1,16.84,2.1,16.84h-.08A42.81,42.81,0,0,0,101,53.64c0-14-4.58-29.13-15.36-37.14-4.58-3.4-10.69-2.85-10.69-2.85-3.38-3.8-8.64-5.38-14.77-5.38-27.88,0-40.82,22.82-40.82,45.36a42.81,42.81,0,0,0,8.24,25.11A65.55,65.55,0,0,1,30.26,57.3a32.33,32.33,0,0,0,5.17-6.38s1.09,1.7-1.64,7.82C40.4,56.49,44.88,48,44.88,48a13.29,13.29,0,0,1-1,8.45"/></g></svg>