<svg xmlns="http://www.w3.org/2000/svg" viewBox="0 0 120 160"><defs><style>.cls-1{fill:#3e3a39;stroke:#3d3736;stroke-linecap:round;stroke-linejoin:round;stroke-width:3.13px;} .mainfill{fill:#3e3a39;} </style></defs><title>male_hair</title><g id="back"><path class="cls-1 mainfill" d="M99.64,60.73l0-.13-.08.09-.1-.09a72.64,72.64,0,0,0,1.29-7.34c2.17-21.47-11.7-41.94-37.32-44.46a16,16,0,0,0-3.38-.24h-.11a18.55,18.55,0,0,0-4,.31C30.71,11.65,17.08,32,19.24,53.25a72.64,72.64,0,0,0,1.29,7.34l0,0,0,0v.05c-3.56,3-6.1,4.75-6.1,4.75a8,8,0,0,0,6.52-1.9l.08-.13,5.68,31.07a3.9,3.9,0,0,0,3.11,3.13H90.37a3.9,3.9,0,0,0,3.11-3.13L99.13,63.5a8,8,0,0,0,6.51,1.9S103.15,63.66,99.64,60.73Z"/></g><g id="front"><path class="cls-1 mainfill" d="M99.48,60.59a72.64,72.64,0,0,0,1.29-7.34c2.17-21.47-11.7-41.94-37.32-44.46a16,16,0,0,0-3.38-.24h-.11a18.55,18.55,0,0,0-4,.31C30.71,11.65,17.08,32,19.24,53.25a72.64,72.64,0,0,0,1.29,7.34c-3.59,3-6.16,4.8-6.16,4.8a8,8,0,0,0,6.52-1.9l.23-.35c.22.92.36,1.5.36,1.5a35.09,35.09,0,0,0,13.62-9.76,38.34,38.34,0,0,0,7.8-15.48,9.54,9.54,0,0,1,9.25-7.25H67.87a9.54,9.54,0,0,1,9.25,7.25,38.34,38.34,0,0,0,7.8,15.48,35.09,35.09,0,0,0,13.62,9.76s.15-.58.36-1.5l.23.35a8,8,0,0,0,6.52,1.9S103.07,63.61,99.48,60.59Z"/></g></svg>