<svg xmlns="http://www.w3.org/2000/svg" viewBox="0 0 120 160"><defs><style>.cls-1{fill:#3e3a39;stroke:#3d3736;stroke-linecap:round;stroke-linejoin:round;stroke-width:3.13px;} .mainfill{fill:#3e3a39;} </style></defs><title>male_hair</title><g id="front"><path class="cls-1 mainfill" d="M96.23,63.6l2.64-4.88,3.4,2.49c5.43-16.12-7.34-24.51-7.34-24.51l9.45,6.06C101.58,32.06,93.9,26,87.78,22.82c4.56.84,8.57,1.95,8.57,1.95C91.83,14.15,78.85,14.63,78.85,14.63l7-4.65c-5.58-2-10.79,1.26-12.47,2.47C70.3,9.2,63.95,4,55.6,4.65c0,0,3.15,2.93,6.42,6.57-.65,0-15.53-5.89-25.32,1.13,0,0,4.16.88,8.8,2.3-1,.49-19.49,0-25.7,17.82,0,0,2.05-.91,5-2.1C20.62,35,16.75,46.69,17.38,60.19c1.52-1.11,3-2.11,4.41-1.83l3.68,5.25,5.67-2.36s4.92-14,6.66-16.4c3.25-4.5,10-8.27,12.73-8.27C54.37,36.57,54.59,39,61,39s6.65-2.43,10.5-2.43c2.71,0,9.48,3.76,12.73,8.27,1.75,2.42,6.66,16.4,6.66,16.4Z"/></g></svg>