<svg xmlns="http://www.w3.org/2000/svg" viewBox="0 0 120 160"><defs><style>.cls-1{fill:#3e3a39;stroke:#3d3736;stroke-linecap:round;stroke-linejoin:round;stroke-width:3.13px;} .mainfill{fill:#3e3a39;} </style></defs><title>male_hair</title><g id="front"><path class="cls-1 mainfill" d="M94.85,35.79l9.45,6.06c-2.81-10.71-10.48-16.73-16.6-19.94,4.56.84,8.57,1.95,8.57,1.95C91.74,13.25,78.76,13.73,78.76,13.73l7-4.65c-5.58-2-10.79,1.26-12.47,2.47-3.1-3.25-9.44-8.48-17.79-7.81,0,0,3.15,2.93,6.42,6.57-.65,0-15.53-5.89-25.32,1.13,0,0,4.16.88,8.8,2.3-1,.49-19.49,0-25.7,17.82,0,0,2.05-.91,5-2.1-4.21,4.64-9,13.64-6.47,29.56A84,84,0,0,1,23.12,46.6a78,78,0,0,0-2.2,18.1L30,56s2.28-4.21,5.43-8.91l2.79,5.08c3.36-4,6.67-8,6.67-8l4.24,8c0-.52,5.16-7.93,5.16-7.93L60,52l4.61-7.3,4.78,8.09,6.5-7.71S81.43,52,82,52.83l4.33-6.27c2,.94,3.55,6.61,3.55,6.61l9.27,11.94a121.8,121.8,0,0,0-1.83-14.43,94.16,94.16,0,0,1,4.84,9.63C107.62,44.19,94.85,35.79,94.85,35.79Z"/></g></svg>