<svg xmlns="http://www.w3.org/2000/svg" viewBox="0 0 120 160"><defs><style>.cls-1{fill:#3e3a39;stroke:#3d3736;stroke-linecap:round;stroke-linejoin:round;stroke-width:3.13px;} .mainfill{fill:#3e3a39;} </style></defs><title>male_hair</title><g id="front"><path class="cls-1 mainfill" d="M60.39,8.56c-27.86.92-43.09,22.27-40.82,44.7A104.17,104.17,0,0,0,21.8,64.66l8.68-7.73s-.23-2.85,2.92-7.56l5.29-1.14S64.37,51,74.18,36.6c0,0,4.33,13,14.63,13.83l1.49,6.49L99,64.66a104.17,104.17,0,0,0,2.23-11.39c1.32-13-.1-22.16-9.4-30.94C85.53,16.4,79.49,17,79.49,17S77.73,8,60.39,8.56Z"/></g></svg>