<svg xmlns="http://www.w3.org/2000/svg" viewBox="0 0 120 160"><defs><style>.cls-1{fill:#3e3a39;stroke:#3d3736;stroke-linecap:round;stroke-linejoin:round;stroke-width:3.13px;} .mainfill{fill:#3e3a39;} </style></defs><title>male_hair</title><g id="back"><path class="cls-1 mainfill" d="M102,54.88c0-14-5.58-30.13-16.36-38.14-4.58-3.4-10.69-2.85-10.69-2.85-3.38-3.8-8.64-5.38-14.77-5.38-27.88,0-41.82,23.82-41.82,46.36a32.14,32.14,0,0,0,1.76,10.38c2.41,13.63,7.82,35.12,19,45.33l2-8.76H79.28l2,8.76c11.15-10.21,16.57-31.7,19-45.33A32.14,32.14,0,0,0,102,54.88Z"/></g><g id="front"><path class="cls-1 mainfill" d="M42.84,59.39c5.94-1.84,9.43-5.54,13.69-12.33,0,0-1.57,9.4-4.07,11.89,0,0,19.07-2.69,25.05-16,0,0,2.35,8.27,4.54,11.19a33.81,33.81,0,0,0,8.68,8C93.52,69.34,92.83,79,92.83,79h-.08C97.93,71.87,102,64.11,102,54.88c0-14-5.58-30.13-16.36-38.14-4.58-3.4-10.69-2.85-10.69-2.85-3.38-3.8-8.64-5.38-14.77-5.38-27.88,0-41.82,23.82-41.82,46.36,0,9.24,4.07,17,9.24,24.11a65.55,65.55,0,0,1,2.67-21.45,32.33,32.33,0,0,0,5.17-6.38,28.26,28.26,0,0,1-2.71,10.51c6.6-2.24,12.16-13.42,12.16-13.42s0,6.45-2,11.14"/></g></svg>