<svg xmlns="http://www.w3.org/2000/svg" viewBox="0 0 120 160"><defs><style>.cls-1{fill:#3e3a39;stroke:#3d3736;stroke-linecap:round;stroke-linejoin:round;stroke-width:3.13px;} .mainfill{fill:#3e3a39;} </style></defs><title>male_hair</title><g id="front"><path class="cls-1 mainfill" d="M95.56,56.68l.17-.07a47.1,47.1,0,0,0-3.1-17C88.56,29.05,79.68,17.38,60.35,17.38H60c-19.34,0-28.21,11.68-32.29,22.19a47.12,47.12,0,0,0-3.1,17.12h.17l9.5-8.36s.92-8,2.66-10.4c3.25-4.5,10-8.27,12.73-8.27,3.85,0,4.06,2.43,10.5,2.43s6.65-2.43,10.5-2.43c2.71,0,9.48,3.76,12.73,8.27,1.75,2.42,2.66,10.4,2.66,10.4Z"/></g></svg>