<svg xmlns="http://www.w3.org/2000/svg" viewBox="0 0 120 160"><defs><style>.cls-1{fill:#3e3a39;stroke:#3d3736;stroke-linecap:round;stroke-linejoin:round;stroke-width:3.13px;} .mainfill{fill:#3e3a39;} </style></defs><title>male_hair</title><g id="back"><path class="cls-1 mainfill" d="M108.68,65.72a11.43,11.43,0,0,0-2.22-5.91C99.12,49.47,105.32,49,100.3,33.22,93.19,10.8,70.38,11,70.38,11S47.08-1.46,26.08,22.54c0,0-10.38,12.06-9.12,24.34a18.29,18.29,0,0,1,.14,2.37C16.72,62.73,11,63.37,11.72,69.6c.43,3.62,2.57,5.86,7.12,6.05,1.93,8.7,5.88,19.26,13.67,19.19H89.41c8.75,1.39,10.6-10.65,10.71-19.25C104.53,74.54,109,71.5,108.68,65.72Z"/></g><g id="front"><path class="cls-1 mainfill" d="M93.78,75.67,95.54,64C90,58.5,90.61,61,88.47,48.34c-1-6-4-8-6.93-8.59a7.85,7.85,0,0,0-7.78,3.54C68.45,51,52,52.83,52,52.83a11.62,11.62,0,0,0-.61-5.67C46.23,54.57,32,56.68,32,56.68,29.53,63.39,25,64.43,25,64.43l1.55,11.24H19.47c-5,0-7.3-2.29-7.75-6.07-.74-6.23,5-6.87,5.38-20.36A18.27,18.27,0,0,0,17,46.87C15.7,34.6,26.08,22.54,26.08,22.54c21-24,44.3-11.55,44.3-11.55s22.81-.18,29.92,22.24c5,15.82-1.18,16.25,6.16,26.59a11.43,11.43,0,0,1,2.22,5.91C109.18,74.62,98.27,77,93.78,75.67Z"/></g></svg>