<svg xmlns="http://www.w3.org/2000/svg" viewBox="0 0 120 160"><defs><style>.cls-1{fill:#3e3a39;stroke:#3d3736;stroke-linecap:round;stroke-linejoin:round;stroke-width:3.13px;} .mainfill{fill:#3e3a39;} </style></defs><title>male_hair</title><g id="front"><path class="cls-1 mainfill" d="M95.4,64.43c1-2,3-20.56,3-21,1.25.22,1.68,2.52,2.77,2.86,1.33-9.76-6.32-20-6.32-20l4.09.19C87,10,75.67,10.31,75.67,10.31l2.05-3.25c-5,.75-10.18,2.9-11.85,4.1C62.78,7.91,58.81,5,50.46,5.69a27,27,0,0,1,4.85,4.6c-.65,0-14.78-3.59-23.63,4A21.14,21.14,0,0,1,37.13,16c-1,.49-13.2,3.43-16.77,16.2a11.44,11.44,0,0,1,6.05-1.31c-3.56,3.92-5.88,4.86-7.77,17.11a10.31,10.31,0,0,1,3.48-4.37c-1.6,0,3.29,21,3.29,21l5.52-8s-2.17-10.69,2-18.47c.27,3.13,4,12.29,6,13.35,3.22-6.65,7.59-8.68,7.59-8.68l1.5,5.6s6.58-2.48,10.79-7.5l-1.2,6.9s7.17-.83,9.18-5.91c0,0,4.41.29,6.41,6.49,3.1-1,4.56-3,3.83-5.42,3.08,2.25,4.21,4.79,5.71,9.16l7-9.92c1.35,4.44.51,15.81.51,15.81Z"/></g></svg>