<svg xmlns="http://www.w3.org/2000/svg" viewBox="0 0 120 160"><defs><style>.cls-1{fill:#3e3a39;stroke:#3d3736;stroke-linecap:round;stroke-linejoin:round;stroke-width:3.13px;} .mainfill{fill:#3e3a39;} </style></defs><title>male_hair</title><g id="front"><path class="cls-1 mainfill" d="M60.56,8.94c-27.88,0-43.09,22.27-40.82,44.7A104.16,104.16,0,0,0,22,65l6.35-5.66s3.17-11.15,6.32-15.86l6.74-5-1,9.19a26.63,26.63,0,0,0,9.13-7.88l.75,7.23S60.54,42.7,63.47,37l-.56,8.89a21.54,21.54,0,0,0,11.25-7.49,15,15,0,0,0,4.57,7.85l2.74-5.58,3.84,3.27c3.15,4.7,7.4,15.18,7.4,15.18L99.15,65a104.17,104.17,0,0,0,2.23-11.39C103.65,31.21,88.44,8.94,60.56,8.94Z"/></g></svg>