<!--?xml version="1.0" encoding="utf-8"?-->
<!-- Generator: Adobe Illustrator 18.1.1, SVG Export Plug-In . SVG Version: 6.00 Build 0)  -->

<svg version="1.1" id="_x32_" xmlns="http://www.w3.org/2000/svg" xmlns:xlink="http://www.w3.org/1999/xlink" x="0px" y="0px" viewBox="0 0 512 512" style="width: 48px; height: 48px; opacity: 1;" xml:space="preserve">
<style type="text/css">
	.st0{fill:#4B4B4B;}
</style>
<g>
	<polygon class="st0" points="420.676,386.985 420.676,346.287 217.266,346.287 196.972,288.619 439.538,288.619 512,90.55 
		468.67,90.55 411.098,247.921 182.652,247.921 114.146,53.238 97.675,53.238 0,53.238 0,93.936 85.319,93.936 188.443,386.985 	" style="fill: rgb(75, 75, 75);"></polygon>
	<circle class="st0" cx="197.425" cy="442.603" r="32.558" style="fill: rgb(75, 75, 75);"></circle>
	<circle class="st0" cx="409.054" cy="442.603" r="32.558" style="fill: rgb(75, 75, 75);"></circle>
	<path class="st0" d="M254.025,126.431l27.066-27.066v86.022c0,10.119,8.203,18.314,18.314,18.314
		c10.111,0,18.314-8.195,18.314-18.314v-86.03l27.074,27.074c7.154,7.154,18.751,7.154,25.898,0c7.154-7.154,7.154-18.743,0-25.898
		l-58.337-58.328c-0.898-0.89-1.86-1.677-2.869-2.345c-3.052-2.01-6.566-3.02-10.079-3.02c-4.69,0-9.372,1.789-12.949,5.366
		l-58.328,58.328c-7.154,7.154-7.154,18.744,0,25.898C235.282,133.585,246.871,133.585,254.025,126.431z" style="fill: rgb(75, 75, 75);"></path>
</g>
</svg>
