<!--?xml version="1.0" encoding="utf-8"?-->
<!-- Generator: Adobe Illustrator 18.1.1, SVG Export Plug-In . SVG Version: 6.00 Build 0)  -->

<svg version="1.1" id="_x32_" xmlns="http://www.w3.org/2000/svg" xmlns:xlink="http://www.w3.org/1999/xlink" x="0px" y="0px" viewBox="0 0 512 512" style="width: 256px; height: 256px; opacity: 1;" xml:space="preserve">
<style type="text/css">
	.st0{fill:#4B4B4B;}
</style>
<g>
	<path class="st0" d="M347.164,96.69V0H164.837v208.777H26.711V512h138.126h33.149h116.029h33.149h138.125V96.69H347.164z
		 M125.846,441.551h-34.66V397.42h34.66V441.551z M125.846,330.889h-34.66v-44.131h34.66V330.889z M273.334,443.849h-34.66v-44.131
		h34.66V443.849z M273.334,333.186h-34.66v-44.139h34.66V333.186z M273.334,222.516h-34.66v-44.131h34.66V222.516z M273.334,111.854
		h-34.66V67.723h34.66V111.854z M420.821,441.551h-34.668V397.42h34.668V441.551z M420.821,330.889h-34.668v-44.131h34.668V330.889z
		 M420.821,220.226h-34.668v-44.131h34.668V220.226z" style="fill: rgb(75, 75, 75);"></path>
</g>
</svg>
