<!--?xml version="1.0" encoding="utf-8"?-->
<!-- Generator: Adobe Illustrator 18.1.1, SVG Export Plug-In . SVG Version: 6.00 Build 0)  -->

<svg version="1.1" id="_x32_" xmlns="http://www.w3.org/2000/svg" xmlns:xlink="http://www.w3.org/1999/xlink" x="0px" y="0px" viewBox="0 0 512 512" style="width: 48px; height: 48px; opacity: 1;" xml:space="preserve">
<style type="text/css">
	.st0{fill:#4B4B4B;}
</style>
<g>
	<path class="st0" d="M427.406,318.495c-13.593,11.316-82.294,56.679-82.294,56.679H232.166l-0.359,0.18
		c-5.949-0.206-10.598-5.188-10.418-11.137c0.214-5.942,5.222-10.607,11.128-10.402h82.865c16.7,0,30.252-13.731,30.252-30.432
		c0-16.727-13.551-30.269-30.252-30.269c-15.135,0-45.37,0-121.01,0c-75.648,0-91.374,31.785-104.523,53.606v125.007l141.717,14.612
		c53.322,2.919,78.892,0,116.883-32.135c0,0,113.438-82.89,127.1-94.242c12.978-11.916,12.841-29.216,0.907-42.228
		C464.524,304.721,442.284,307.487,427.406,318.495z" style="fill: rgb(75, 75, 75);"></path>
	<rect y="317.228" class="st0" width="65.744" height="159.976" style="fill: rgb(75, 75, 75);"></rect>
	<polygon class="st0" points="312.938,167.755 326.176,167.755 326.176,151.859 347.508,151.859 347.508,150.284 347.508,140.303 
		347.508,140.277 326.176,140.277 326.176,135.56 329.746,129.345 347.508,129.345 347.508,127.034 347.508,119.989 
		347.508,117.686 335.764,117.686 345.527,97.997 344.042,97.997 334.305,97.997 332.802,97.997 319.554,123.096 306.299,97.997 
		304.801,97.997 295.064,97.997 293.591,97.997 303.35,117.686 291.597,117.686 291.597,119.989 291.597,127.034 291.597,129.345 
		309.372,129.345 312.938,135.569 312.938,140.277 291.597,140.277 291.597,140.303 291.597,150.284 291.597,151.859 
		312.938,151.859 	" style="fill: rgb(75, 75, 75);"></polygon>
	<path class="st0" d="M193.687,206.68h251.731c3.578-14.621,15.392-25.99,30.261-28.874V90.207
		c-14.869-2.894-26.683-14.262-30.261-28.874H193.687c-3.578,14.612-15.391,25.981-30.26,28.874v87.598
		C178.296,180.69,190.109,192.059,193.687,206.68z M423.118,119.647c7.918,0,14.356,6.429,14.356,14.347
		c0,7.936-6.438,14.356-14.356,14.356c-7.936,0-14.347-6.42-14.347-14.356C408.771,126.075,415.182,119.647,423.118,119.647z
		 M319.554,73.489c33.428,0,60.514,27.094,60.514,60.505c0,33.436-27.086,60.53-60.514,60.53c-33.411,0-60.518-27.094-60.518-60.53
		C259.037,100.583,286.144,73.489,319.554,73.489z M215.983,119.647c7.94,0,14.351,6.429,14.351,14.347
		c0,7.936-6.416,14.356-14.351,14.356c-7.914,0-14.352-6.42-14.352-14.356C201.631,126.075,208.069,119.647,215.983,119.647z" style="fill: rgb(75, 75, 75);"></path>
	<path class="st0" d="M127.104,24.789v8.766v209.669H512v-14.51V24.789H127.104z M491.755,222.978H147.35V45.034h344.405V222.978z" style="fill: rgb(75, 75, 75);"></path>
</g>
</svg>
