<svg xmlns="http://www.w3.org/2000/svg" viewBox="0 0 120 160"><defs><style>.cls-1{fill:#3e3a39;stroke:#3d3736;stroke-linecap:round;stroke-linejoin:round;stroke-width:3.13px;} .mainfill{fill:#3e3a39;} </style></defs><title>female_hair</title><g id="front"><path class="cls-1 mainfill" d="M104.19,53.83c0-25.21-18.34-45.62-44.1-45.62h-.18c-25.75,0-44.1,20.16-44.1,45.63S31.94,76.57,31.94,76.57C25.23,69.86,34.23,50.49,40,43.66c.89-.89,2.33-2.37,2.33-2.37A19.88,19.88,0,0,0,58.13,52.63c-3.83-3.17-3.32-10.74-3.32-10.74,4.89,4.89,7.18,8.26,16.86,9.55a51.52,51.52,0,0,0,12.81,0l.45-.05c4.65,8.94,8.26,21.07,3.13,25.15C88.06,76.57,104.19,79,104.19,53.83Z"/></g></svg>