<svg xmlns="http://www.w3.org/2000/svg" viewBox="0 0 120 160"><defs><style>.cls-1{fill:#3e3a39;stroke:#3d3736;stroke-linecap:round;stroke-linejoin:round;stroke-width:3.13px;} .mainfill{fill:#3e3a39;} </style></defs><title>female_hair</title><g id="back"><path class="cls-1 mainfill" d="M60.36,133c59.8,0,49.7-59,46.1-78.38C100,28.47,86.11,9,60.36,9H60c-25.75,0-39.61,19.5-46.1,45.63C10.29,74,.2,133,60,133"/></g><g id="front"><path class="cls-1 mainfill" d="M106.27,53.59C99.78,27.47,85.93,8,60.17,8H60c-25.75,0-39.61,19.5-46.1,45.62-2.76,14.81-9.3,56.21,14.49,72.69,2.65,1.84,6.67,3.14,8.71,5.18,2.41,2.41,5.32,8.25,2.16,12.17,6.8.23,9.67-10.81,2.68-19.56C31.94,111.57,31,95,31,76.33q.08-1.76.19-3.43a69.21,69.21,0,0,1,6.44-25.19,21.69,21.69,0,0,1,2.48-4.29c.89-.89,2.33-2.37,2.33-2.37A19.88,19.88,0,0,0,58.21,52.39c-3.83-3.17-3.32-10.74-3.32-10.74,4.89,4.89,7.18,8.26,16.86,9.55a51.51,51.51,0,0,0,12.81,0l.44-.05c.28.54.6,1.25.94,2.09a106.74,106.74,0,0,1,3.19,23.05c0,18.7-.92,35.24-10.91,47.75-7,8.75-4.12,19.79,2.68,19.56-3.17-3.92-.25-9.75,2.16-12.17,2-2,6.06-3.34,8.71-5.18C115.58,109.8,109,68.4,106.27,53.59Z"/></g></svg>