<svg xmlns="http://www.w3.org/2000/svg" viewBox="0 0 120 160"><defs><style>.cls-1{fill:#3e3a39;stroke:#3d3736;stroke-linecap:round;stroke-linejoin:round;stroke-width:3.13px;} .mainfill{fill:#3e3a39;} </style></defs><title>female_hair</title><g id="back"><path class="cls-1 mainfill" d="M60.19,114.34c61,0,50.71-40,47-59.38-6.62-26.13-20.76-45.63-47-45.63h-.37c-26.27,0-40.41,19.5-47,45.63-3.68,19.37-14,59.38,47,59.38"/></g><g id="front"><path class="cls-1 mainfill" d="M61.51,30.25c12.85,0,26.36,8.73,28,46.45,0,25.63-11.43,36.92-7.73,35.81C118.22,101.63,110.19,70.59,107,54h0C100.41,27.84,86.27,8.34,60,8.34h-.19c-26.27,0-40.41,19.5-47,45.62h0c-3.11,16.38-11,46.52,23.61,58,4.29,1.43-6.13-9.67-6.13-35.31C31.95,39,45.45,30.25,58.3,30.25Z"/></g></svg>