<svg xmlns="http://www.w3.org/2000/svg" viewBox="0 0 120 160"><defs><style>.cls-1{fill:#3e3a39;stroke:#3d3736;stroke-linecap:round;stroke-linejoin:round;stroke-width:3.13px;} .mainfill{fill:#3e3a39;} </style></defs><title>female_hair</title><g id="back"><path class="cls-1 mainfill" d="M60.36,133c59.8,0,49.7-59,46.1-78.38C100,28.47,86.11,9,60.36,9H60c-25.75,0-39.61,19.5-46.1,45.63C10.29,74,.2,133,60,133"/></g><g id="front"><path class="cls-1 mainfill" d="M105.92,109.22c3.56-8.67,11.23-15.56,9.06-29.56-1.13-7.28-8.23-13.71-8.23-25.34,0-10.8-7-45.35-46.58-45.35S13.59,43.52,13.59,54.32c0,11.63-7.1,18.06-8.23,25.34-2.17,14,5.5,20.89,9.06,29.56S2.8,125.44,10.61,137.62c5.73,8.94,18.45,4.53,21.49,9.27s.5,8.5.5,8.5,13.63-8.38,8.26-19.24c-4-6.93-9.74-6.24-6.09-19.89,4.29-16-9.17-26.37-6.19-42,0-4.68,7.84-17.1,9.39-31.52,0,0,8,8.86,19.84,10.36C54,49.92,54.48,42.35,54.48,42.35c4.89,4.89,10.18,8.26,19.86,9.55a50.85,50.85,0,0,0,11.39.17c2.27,11.81,6,18.61,6,22.18,3,15.65-10.49,26-6.19,42,3.65,13.65-2.13,13-6.09,19.89-5.37,10.86,8.26,19.24,8.26,19.24s-2.54-3.76.5-8.5,15.75-.33,21.49-9.27C117.55,125.44,102.36,117.89,105.92,109.22Z"/></g></svg>