<svg xmlns="http://www.w3.org/2000/svg" viewBox="0 0 120 160"><defs><style>.cls-1{fill:#3e3a39;stroke:#3d3736;stroke-linecap:round;stroke-linejoin:round;stroke-width:3.13px;} .mainfill{fill:#3e3a39;} </style></defs><title>female_hair</title><g id="back"><path class="cls-1 mainfill" d="M105.17,76.76A26.89,26.89,0,0,0,111,78a14.89,14.89,0,0,1-5.45-3.64l.05-.22A46.36,46.36,0,0,0,107,64.53c0-.06,0-.11,0-.17,0-.55,0-1.11.05-1.66,0-.13,0-.25,0-.38,0-.51,0-1,0-1.52,0-.17,0-.33,0-.5,0-.48,0-.95,0-1.42,0-.19,0-.38,0-.57,0-.45,0-.89-.08-1.33q0-.31,0-.62,0-.63-.1-1.24c0-.23,0-.45-.07-.67,0-.39-.08-.77-.12-1.15s-.06-.47-.09-.71-.09-.71-.14-1.06-.07-.51-.11-.76-.09-.64-.14-1S106,49.27,106,49s-.09-.55-.14-.81-.12-.65-.18-1l-.11-.6c-.1-.51-.2-1-.3-1.48A43.06,43.06,0,0,0,102.8,37c-.38-.88-.78-1.73-1.2-2.57l-.3-.59c-.41-.79-.84-1.57-1.29-2.32l-.3-.47q-.58-.93-1.19-1.8l-.41-.59q-.71-1-1.48-1.89l-.55-.63q-.64-.73-1.32-1.41l-.46-.48A44.48,44.48,0,0,0,60.17,8.32h-.63c-12.32-.22-16.46,4.5-17.79,7h0l-.86.28c-.64.2-1.29.41-1.91.64s-1,.38-1.45.58l-1.06.45c-.57.25-1.13.52-1.68.8l-.59.3a34.42,34.42,0,0,0-8.62,6.35l0,0c-.65.66-1.28,1.35-1.88,2.07l-.15.2c-.55.67-1.09,1.35-1.59,2.07-.12.17-.23.35-.34.52-.43.63-.86,1.26-1.26,1.93-.22.36-.42.75-.62,1.12s-.57,1-.84,1.51q-.7,1.37-1.32,2.84a43.07,43.07,0,0,0-2.47,8.16c-.1.48-.2,1-.3,1.48l-.11.62c-.06.31-.12.62-.17.95s-.09.54-.14.81-.09.55-.14.84-.09.62-.14.93-.08.52-.11.79-.09.68-.13,1-.06.49-.09.74-.08.75-.12,1.12,0,.47-.07.7q-.06.6-.1,1.21,0,.33,0,.66c0,.43-.05.86-.08,1.29,0,.2,0,.41,0,.61,0,.46,0,.91,0,1.37,0,.18,0,.37,0,.55,0,.49,0,1,0,1.46,0,.15,0,.3,0,.45,0,.53,0,1.06.05,1.59,0,.08,0,.16,0,.25A46.38,46.38,0,0,0,14.77,74c0,.1,0,.2.07.3A14.89,14.89,0,0,1,9.39,78a35.6,35.6,0,0,0,5.54-1.81c2.21,5.12,7.31,31-5.54,38.94,0,0,11.15,3.33,16.57-2.09,0,0,.4,2.92-1.18,4.5,0,0,15.41,2.67,19.5-10.08H76.06c4.09,12.75,19.5,10.08,19.5,10.08-1.58-1.58-1.18-4.5-1.18-4.5,5.42,5.42,16.57,2.09,16.57,2.09C98.54,107.43,102.87,83.19,105.17,76.76Zm-.32-.1-.11.13,0-.15ZM15,76.11l.34-.14c.09.27.16.55.26.82Z"/></g><g id="front"><path class="cls-1 mainfill" d="M105.5,74.31c2.88-10.48,1.29-21.79-.23-29.17A43.06,43.06,0,0,0,102.8,37a38.73,38.73,0,0,0-8.49-12.74A44.48,44.48,0,0,0,60.17,8.32h-.63c-12.32-.22-16.46,4.5-17.79,7a40,40,0,0,0-9.4,4.08l-.08.05c-6.61,4-11.44,9.83-14.72,17.54a43.07,43.07,0,0,0-2.47,8.16c-1.53,7.38-3.11,18.69-.24,29.17A14.89,14.89,0,0,1,9.39,78a41.42,41.42,0,0,0,11.17-4.58l.06.12c.14.26.2.14.22-.3C29.48,68.09,39.77,58,39.46,38.82c0,0,8,12.33,19.83,13.83C55.46,49.49,55,42,55,42c4.89,4.89,7.18,8.26,16.86,9.55a51.52,51.52,0,0,0,12.8,0C88.27,76.65,111,78,111,78A14.89,14.89,0,0,1,105.5,74.31Zm-90.17-.52c.46-1.24,1.36-3.56,2.63-6.58.12.35.23.69.35,1A15.63,15.63,0,0,1,15.34,73.79Z"/></g></svg>