<svg xmlns="http://www.w3.org/2000/svg" viewBox="0 0 120 160"><defs><style>.cls-1{fill:#3e3a39;stroke:#3d3736;stroke-linecap:round;stroke-linejoin:round;stroke-width:3.13px;} .mainfill{fill:#3e3a39;} </style></defs><title>female_hair</title><g id="back"><path class="cls-1 mainfill" d="M92.1,90.52l.37-1.95c.56-2.91,1.28-5.78,2-8.64,3.35-12.9,1.57-26-1.82-37.2C85,1.13,62.51,2.35,58.81,2.24c-6.22,0-11.25,3.8-11.25,8.48,0,3.51,2.83,6.53,6.87,7.82a14.44,14.44,0,0,0,4.38.67,14.55,14.55,0,0,0,3.56-.44C78.76,27.4,74,92.55,74,92.55s-7.83,22.34,26.83,22.34c-7.18,0-9.24-7.25-9.56-14.28A43.31,43.31,0,0,1,92.1,90.52Z"/></g><g id="front"><path class="cls-1 mainfill" d="M60.13,8.64C32.26,8.64,17,30.91,19.31,53.34a104.16,104.16,0,0,0,2.23,11.39L25,61.64c.27,2.24.4,3.37.4,3.37s9-14.1,14.78-20.92c.89-.89,2.33-2.37,2.33-2.37A19.88,19.88,0,0,0,58.26,53.05c-3.83-3.17-3.32-10.74-3.32-10.74,4.89,4.89,7.18,8.26,16.86,9.55a51.52,51.52,0,0,0,12.81,0l.45-.05A52.28,52.28,0,0,0,95.28,65.74s.32-1.22.67-3.56l2.77,2.55A104.17,104.17,0,0,0,101,53.34C103.22,30.91,88,8.64,60.13,8.64Z"/></g></svg>