<svg xmlns="http://www.w3.org/2000/svg" viewBox="0 0 120 160"><defs><style>.cls-1{fill:#3e3a39;stroke:#3d3736;stroke-linecap:round;stroke-linejoin:round;stroke-width:3.13px;} .mainfill{fill:#3e3a39;} </style></defs><title>female_hair</title><g id="back"><path class="cls-1 mainfill" d="M60.18,133.52c59.8,0,49.7-59,46.1-78.38C99.79,29,85.94,9.52,60.18,9.52h-.37c-25.75,0-39.61,19.5-46.1,45.63-3.6,19.37-13.7,78.38,46.1,78.38"/></g><g id="front"><path class="cls-1 mainfill" d="M61.48,30.44c12.59,0,25.83,8.73,27.49,46.45,0,25.72-8.16,50.55-19.21,56.45h.46A37.6,37.6,0,0,0,81,131.81c36.09-10.81,28.17-61,25.07-77.66C99.61,28,85.75,8.52,60,8.52h-.18c-25.75,0-39.61,19.5-46.1,45.63-3.06,16.46-10.81,65.78,23.63,77.21a39.81,39.81,0,0,0,12.57,2h.13c-11-5.89-19.21-30.73-19.21-56.45C32.5,39.17,45.74,30.44,58.34,30.44Z"/></g></svg>