<svg xmlns="http://www.w3.org/2000/svg" viewBox="0 0 120 160"><defs><style>.cls-1{fill:#3e3a39;stroke:#3d3736;stroke-linecap:round;stroke-linejoin:round;stroke-width:3.13px;} .mainfill{fill:#3e3a39;} </style></defs><title>female_hair</title><g id="front"><path class="cls-1 mainfill" d="M107.3,54h0c-6.62-26.13-20.76-45.62-47-45.62h-.19C33.81,8.34,19.67,27.84,13,54h0c-3.11,16.38-11,46.52,23.61,58,4.29,1.43-6.13-9.67-6.13-35.31C31.46,55.89,36,43.92,42,37.35c4.32,6,11.64,11.86,20.81,16.1,8.86,4.1,17.76,5.9,25,5.5a118.06,118.06,0,0,1,2,17.75c0,25.63-11.43,36.92-7.73,35.81C118.49,101.63,110.45,70.59,107.3,54Z"/></g></svg>