<svg xmlns="http://www.w3.org/2000/svg" viewBox="0 0 120 160"><defs><style>.cls-1{fill:#3e3a39;stroke:#3d3736;stroke-linecap:round;stroke-linejoin:round;stroke-width:3.13px;} .mainfill{fill:#3e3a39;} </style></defs><title>female_hair</title><g id="front"><path class="cls-1 mainfill" d="M103.64,43.41c5-20.16-13.37-23.86-13.37-23.86-4.85-13.77-18-9.88-18-9.88-31-12.78-43.91,14-43.91,14-10.19,3.59-9.44,14.57-9.27,16.17-.05.12-.11.23-.17.35-1,.78-4.81,4.78-4.81,12C14.12,60,17.45,63,19.51,64c4.67,5.92,13.11,5.62,13.11,5.62-6.71-6.71,2.29-19.09,8.11-25.91.89-.89,2.33-2.37,2.33-2.37A19.88,19.88,0,0,0,58.8,52.63C55,49.46,55.48,41.89,55.48,41.89c4.89,4.89,7.18,8.26,16.86,9.55a51.52,51.52,0,0,0,12.81,0l.45-.05c4.65,8.94,8.26,14.07,3.14,18.15,0,0,6.09.64,10.79-2.8h0C111.62,58.57,103.64,43.41,103.64,43.41Z"/></g></svg>