<svg xmlns="http://www.w3.org/2000/svg" viewBox="0 0 120 160"><defs><style>.cls-1{fill:#3e3a39;stroke:#3d3736;stroke-linecap:round;stroke-linejoin:round;stroke-width:3.13px;} .mainfill{fill:#3e3a39;} </style></defs><title>female_hair</title><g id="front"><path class="cls-1 mainfill" d="M107.19,77h0a43.26,43.26,0,0,0,.61-7.81A82.11,82.11,0,0,0,100,35.62C92.18,19,79.54,8,60.17,8h-.34C40.46,8,27.82,19,20,35.62A82.11,82.11,0,0,0,12.2,69.18,43.26,43.26,0,0,0,12.81,77h0C17,99.58,9.7,96.08,9.7,108.2c0,8.37,10.75,12.16,15.51,7.55a12.57,12.57,0,0,0,7,2.28c5.55.08,9.35-4.6,8.27-10.74C38.83,98.19,30.59,98.91,29,78.5c0-9.58,5.23-28.2,11-35,.38,3.8,1.36,7.06,2.86,9.17l3.38-7.55c1.05,3.16,2.53,6.15,4.39,7.33l4.53-7.25a17.14,17.14,0,0,0,4.53,8l.07-1.27.07,1.27a17.14,17.14,0,0,0,4.53-8l4.53,7.25c1.87-1.19,3.34-4.17,4.39-7.33l3.38,7.55c1.55-2.18,2.55-5.6,2.89-9.57C85.6,49.84,91,68.75,91,78.5c-1.59,20.41-9.84,19.69-11.45,28.79-1.09,6.14,2.71,10.82,8.27,10.74a12.57,12.57,0,0,0,7-2.28c4.76,4.61,15.51.82,15.51-7.55C110.3,96.08,103,99.58,107.19,77Z"/></g></svg>