<svg xmlns="http://www.w3.org/2000/svg" viewBox="0 0 120 160"><defs><style>.cls-1{fill:#3e3a39;stroke:#3d3736;stroke-linecap:round;stroke-linejoin:round;stroke-width:3.13px;} .mainfill{fill:#3e3a39;} </style></defs><title>female_hair</title><g id="front"><path class="cls-1 mainfill" d="M107.24,54.29h0c-6.62-26.13-20.76-45.62-47-45.62H60c-26.27,0-40.41,19.5-47,45.62h0C9.88,70.68,5.34,95.46,39.9,107c4.29,1.43-9.44-4.32-9.44-30,.93-20.81,12.82-46.94,45.3-45.73,6,3.82,19.32,21.67,19.3,33.59,3.63,0,5.44,2.45,6.35,4.9a12.53,12.53,0,0,1,.16,7.92c-1.06,3.58-5,7.81-8.32,9.34-4.89,18.38-16.91,21.54-14.1,20.7C115.56,96.86,110.39,70.92,107.24,54.29Z"/></g></svg>