<svg xmlns="http://www.w3.org/2000/svg" viewBox="0 0 120 160"><defs><style>.cls-1{fill:#3e3a39;stroke:#3d3736;stroke-linecap:round;stroke-linejoin:round;stroke-width:3.13px;} .mainfill{fill:#3e3a39;} </style></defs><title>female_hair</title><g id="back"><path class="cls-1 mainfill" d="M60.17,116.67c51.49,0,49.7-42,46.1-61.38C99.78,29.17,85.92,9.67,60.17,9.67H59.8C34,9.67,20.19,29.17,13.7,55.29c-3.6,19.37-3,62.54,46.1,61.38"/></g><g id="front"><path class="cls-1 mainfill" d="M106.08,54.29C99.6,28.17,85.74,8.67,60,8.67H59.8C34,8.67,20.19,28.17,13.7,54.29c-3.06,16.46-4.3,54.29,23.63,61.21,4.14,1-8.5-12.75-8.5-38.47.85-19.37,5.29-30.09,11.11-36.91.38,3.8,1.36,7.06,2.86,9.17l3.38-7.55c1.05,3.16,2.53,6.15,4.39,7.33l4.53-7.25a17.14,17.14,0,0,0,4.53,8l.07-1.27.07,1.27a17.14,17.14,0,0,0,4.53-8l4.53,7.25c1.87-1.19,3.34-4.17,4.39-7.33l3.38,7.55c1.55-2.18,2.55-5.6,2.89-9.57C85.49,46.49,90.09,57.28,91,77,91,102.75,77.52,117,81,116,111.41,106.59,109.19,71,106.08,54.29Z"/></g></svg>