<svg xmlns="http://www.w3.org/2000/svg" viewBox="0 0 120 160"><defs><style>.cls-1{fill:#3e3a39;stroke:#3d3736;stroke-linecap:round;stroke-linejoin:round;stroke-width:3.13px;} .mainfill{fill:#3e3a39;} </style></defs><title>female_hair</title><g id="back"><path class="cls-1 mainfill" d="M60.36,133c59.8,0,49.7-59,46.1-78.38C100,28.52,86.11,9,60.36,9H60c-25.75,0-39.61,19.5-46.1,45.63C10.29,74,.2,133,60,133"/></g><g id="front"><path class="cls-1 mainfill" d="M106.27,53.64C99.78,27.52,85.93,8,60.17,8H60c-25.75,0-39.61,19.5-46.1,45.63-3.15,16.9-11.23,68.44,26.49,78a39.27,39.27,0,0,0,9.71,1.14h.13C39.19,126.94,31,102.1,31,76.38a127.49,127.49,0,0,1,1.44-14.76A35.84,35.84,0,0,1,38.91,46c.41-.55.82-1.07,1.22-1.54.38,3.8,1.36,7.06,2.86,9.17l3.38-7.55c1.05,3.16,2.53,6.15,4.39,7.33l4.53-7.25a17.14,17.14,0,0,0,4.53,8l.07-1.27L60,54.19a17.14,17.14,0,0,0,4.53-8L69,53.43c1.87-1.19,3.34-4.17,4.39-7.33l3.38,7.55c1.55-2.18,2.55-5.6,2.89-9.57.42.48.85,1,1.28,1.57a35.82,35.82,0,0,1,6.73,16,127.55,127.55,0,0,1,1.44,14.75c0,25.72-8.16,50.55-19.21,56.45h.35a38.07,38.07,0,0,0,11.22-1.61C117.25,120.22,109.37,70.28,106.27,53.64Z"/></g></svg>