<svg xmlns="http://www.w3.org/2000/svg" viewBox="0 0 120 160"><defs><style>.cls-1{fill:#3e3a39;stroke:#3d3736;stroke-linecap:round;stroke-linejoin:round;stroke-width:3.13px;} .mainfill{fill:#3e3a39;} </style></defs><title>female_hair</title><g id="front"><path class="cls-1 mainfill" d="M113.33,62.24c-8.33-3.33-9.65-15.79-9.65-15.79l0,.11C100.52,24.64,83.32,8.21,60.07,8.21h-.18c-23.22,0-40.4,16.59-43.57,38.33v0S15,59,6.67,62.3a18.91,18.91,0,0,0,9.82,1.22c2.44,14.82,10.44,13.05,10.44,13.05-.26-9.8,3.47-16.21,8.13-25.15l.45.05a51.52,51.52,0,0,0,12.81,0c9.68-1.29,12-4.66,16.86-9.55,0,0,.51,7.57-3.32,10.74A19.88,19.88,0,0,0,77.61,41.29s1.44,1.48,2.33,2.37c5.82,6.82,13.61,23.8,13.61,32.91,0,0,7.68,2,10-13.11A18.91,18.91,0,0,0,113.33,62.24Z"/></g></svg>