<svg xmlns="http://www.w3.org/2000/svg" viewBox="0 0 120 160"><defs><style>.cls-1{fill:#3e3a39;stroke:#3d3736;stroke-linecap:round;stroke-linejoin:round;stroke-width:3.13px;} .mainfill{fill:#3e3a39;} </style></defs><title>female_hair</title><g id="back"><path class="cls-1 mainfill" d="M60.18,133c59.8,0,49.7-59,46.1-78.38C99.79,28.47,85.94,9,60.18,9h-.37c-25.75,0-39.61,19.5-46.1,45.62C10.11,74,0,133,59.82,133"/></g><g id="front"><path class="cls-1 mainfill" d="M106.1,53.59C99.61,27.47,85.75,8,60,8h-.18c-25.75,0-39.61,19.5-46.1,45.62C11,68.4,4.41,109.8,28.21,126.29c2.65,1.84,6.67,3.14,8.71,5.18,2.41,2.41,5.32,8.25,2.16,12.17,6.8.23,9.67-10.81,2.68-19.56C31.77,111.57,30.85,95,30.85,76.33,32.5,38.62,45.74,29.89,58.34,29.89h3.15c12.59,0,25.83,8.73,27.49,46.45C89,95,88,111.57,78.06,124.08c-7,8.75-4.12,19.79,2.68,19.56-3.17-3.92-.25-9.75,2.16-12.17,2-2,6.06-3.34,8.71-5.18C115.4,109.8,108.85,68.4,106.1,53.59Z"/></g></svg>