<svg xmlns="http://www.w3.org/2000/svg" viewBox="0 0 120 160"><defs><style>.cls-1{fill:#3e3a39;stroke:#3d3736;stroke-linecap:round;stroke-linejoin:round;stroke-width:3.13px;} .mainfill{fill:#3e3a39;} </style></defs><title>female_hair</title><g id="back"><path class="cls-1 mainfill" d="M92.1,90.52l.37-1.95c.56-2.91,1.28-5.78,2-8.64,3.35-12.9,1.57-26-1.82-37.2C85,1.13,62.51,2.35,58.81,2.24c-6.22,0-11.25,3.8-11.25,8.48,0,3.51,2.83,6.53,6.87,7.82a14.44,14.44,0,0,0,4.38.67,14.55,14.55,0,0,0,3.56-.44C78.76,27.4,74,92.55,74,92.55s-7.83,22.34,26.83,22.34c-7.18,0-9.24-7.25-9.56-14.28A43.31,43.31,0,0,1,92.1,90.52Z"/></g><g id="front"><path class="cls-1 mainfill" d="M60.13,8.64C32.26,8.64,17,30.91,19.31,53.34a104.16,104.16,0,0,0,2.23,11.39L25,61.64l.2,1.65c0-.4,0-.79,0-1.19,0-19.21,17.54-34.78,35-34.78S95.6,42.9,95.6,62.11c0,1-.06,1.9-.14,2.84.13-.6.3-1.52.49-2.77l2.77,2.55A104.17,104.17,0,0,0,101,53.34C103.22,30.91,88,8.64,60.13,8.64Z"/></g></svg>