<svg xmlns="http://www.w3.org/2000/svg" viewBox="0 0 120 160"><defs><style>.cls-1{fill:#3d3736;} .mainfill{fill:#3d3736;} </style></defs><title>mouth</title><g id="mouth"><g id="mouth2"><path class="cls-1 mainfill" d="M52.57,93.75a23.47,23.47,0,0,1,3.49-1.87c1.19-.54,2.41-1,3.64-1.43h0a1.44,1.44,0,0,1,1,0c1.23.43,2.45.89,3.63,1.43a24.27,24.27,0,0,1,3.49,1.86A.7.7,0,0,1,67.34,95a24.27,24.27,0,0,1-3.9-.65c-1.27-.29-2.52-.68-3.75-1.08h1c-1.23.41-2.48.79-3.75,1.09A23.48,23.48,0,0,1,53,95a.7.7,0,0,1-.43-1.27Z"/></g></g></svg>