<svg xmlns="http://www.w3.org/2000/svg" viewBox="0 0 120 160"><defs><style>.cls-1{fill:#3d3736;} .mainfill{fill:#3d3736;} </style></defs><title>mouth</title><g id="mouth"><g id="mouth3"><path class="cls-1 mainfill" d="M69.46,89.62a5.44,5.44,0,0,1,.44,1.64,2.88,2.88,0,0,1-.49,2.06,2.29,2.29,0,0,1-1.11.78,3.67,3.67,0,0,1-1.1.17,8.29,8.29,0,0,1-1.7-.17c-2.09-.42-3.85-1.19-5.32-1.17s-3.23.74-5.33,1.16a8.06,8.06,0,0,1-1.7.17,3.65,3.65,0,0,1-1.09-.17,2.27,2.27,0,0,1-1.11-.78,2.87,2.87,0,0,1-.49-2.06,5.47,5.47,0,0,1,.44-1.64.68.68,0,0,1,1.3.28V90a5.93,5.93,0,0,0,.07,1.25c.07.37.22.7.32.68l.46-.07a8,8,0,0,0,1.18-.3c1.66-.53,3.5-1.54,6-1.61s4.3,1.08,6,1.6a7.54,7.54,0,0,0,1.17.3,4.08,4.08,0,0,1,.45.07c.1,0,.26-.31.33-.68A6,6,0,0,0,68.16,90v-.08a.68.68,0,0,1,1.3-.28Z"/></g></g></svg>