<svg xmlns="http://www.w3.org/2000/svg" viewBox="0 0 120 160"><defs><style>.cls-1{fill:#3d3736;} .mainfill{fill:#3d3736;} </style></defs><title>mouth</title><g id="mouth"><g id="mouth1"><path class="cls-1 mainfill" d="M69.63,90.2a7.09,7.09,0,0,1-3.9,4.56,13.72,13.72,0,0,1-11.45,0,7.11,7.11,0,0,1-3.9-4.55.67.67,0,0,1,1.18-.55l.1.14a6.93,6.93,0,0,0,1.63,1.55,8.5,8.5,0,0,0,2,1A14.45,14.45,0,0,0,60,93a14.57,14.57,0,0,0,4.67-.67,8.49,8.49,0,0,0,2-1,7,7,0,0,0,1.64-1.54l.1-.14a.66.66,0,0,1,1.18.56Z"/></g></g></svg>