<svg xmlns="http://www.w3.org/2000/svg" viewBox="0 0 120 160"><defs><style>.cls-1{fill:#3d3736;} .mainfill{fill:#3d3736;} </style></defs><title>nose</title><g id="nose"><g id="nose1"><path class="cls-1 mainfill" d="M61,73.47a5.73,5.73,0,0,1,0,1.94,7.64,7.64,0,0,1-.51,1.83,8.6,8.6,0,0,1-2.22,3.1L57.89,78A14.16,14.16,0,0,1,61,80.36a.72.72,0,0,1-.58,1.21,14.16,14.16,0,0,1-3.8-1,1.35,1.35,0,0,1-.57-2.12l.17-.21A27.09,27.09,0,0,0,58,75.92c.29-.41.55-.84.83-1.28s.56-.92.85-1.34l.07-.11a.7.7,0,0,1,1.26.28Z"/></g></g></svg>