<svg xmlns="http://www.w3.org/2000/svg" viewBox="0 0 120 160"><defs><style>.cls-1{fill:#3d3736;} .mainfill{fill:#3d3736;} </style></defs><title>nose</title><g id="nose"><g id="nose4"><path class="cls-1 mainfill" d="M55.25,77a13.88,13.88,0,0,1,2.92.8,22.11,22.11,0,0,1,2.7,1.21H59.48a23,23,0,0,1,2.7-1.21A14.34,14.34,0,0,1,65.1,77a.71.71,0,0,1,.62,1.19,14.34,14.34,0,0,1-2.32,1.94,23,23,0,0,1-2.53,1.53,1.48,1.48,0,0,1-1.37,0h0a22.15,22.15,0,0,1-2.54-1.53,13.88,13.88,0,0,1-2.32-1.94A.71.71,0,0,1,55.25,77Z"/></g></g></svg>