<svg xmlns="http://www.w3.org/2000/svg" viewBox="0 0 120 160"><defs><style>.cls-1{fill:#3d3736;} .mainfill{fill:#3d3736;} </style></defs><title>nose</title><g id="nose"><g id="nose2"><path class="cls-1 mainfill" d="M61,66.86c-.37,1.07-.77,2.14-1.17,3.19s-.77,2.1-1.13,3.15-.7,2.08-.94,3.12a16.47,16.47,0,0,0-.5,3L56.33,78c.45.21,1,.42,1.44.63l1.47.62c1,.41,2,.8,3,1.17h0a.69.69,0,0,1-.17,1.33,13,13,0,0,1-3.48-.21c-.57-.09-1.12-.24-1.68-.37s-1.08-.32-1.66-.51a1.32,1.32,0,0,1-.89-1.21v-.12a14.28,14.28,0,0,1,.49-3.77A21.63,21.63,0,0,1,56,72.16,24.58,24.58,0,0,1,57.72,69a20.84,20.84,0,0,1,2.09-2.87.68.68,0,0,1,1.16.68Z"/></g></g></svg>