<svg xmlns="http://www.w3.org/2000/svg" viewBox="0 0 120 160"><defs><style>.cls-1{fill:#f9e5cf;}.cls-1,.cls-2,.cls-4{stroke:#3d3736;stroke-linecap:round;stroke-linejoin:round;stroke-width:3.13px;}.cls-2{fill:#f5d4b4;}.cls-3{fill:#3d3736;}.cls-4{fill:#fff;} .mainfill{fill:#f9e5cf;}  .subfill{fill:#f5d4b4;} </style></defs><title>shape</title><g id="shape"><path class="cls-1 mainfill" d="M101.08,128c-14.63-7.14-26.46-8.52-26.46-8.52L76.49,105,60.91,94.51l-17.5,11.12,2,13.84S33.55,120.84,18.92,128,1.67,157.58,1.67,157.58H118.33S115.72,135.13,101.08,128Z"/><path class="cls-2 subfill" d="M24.38,64.43c-3.63,0-5.44,2.45-6.35,4.9a12.53,12.53,0,0,0-.16,7.92c1.32,4.45,7,9.93,10.66,9.93"/><path class="cls-2 subfill" d="M95.19,64.43c3.63,0,5.44,2.45,6.35,4.9a12.53,12.53,0,0,1,.16,7.92c-1.32,4.45-7,9.93-10.66,9.93"/><path class="cls-1 mainfill" d="M60.35,112.8c9.55,0,20.45-8.62,25.18-16.76,4-6.92,8.69-17.19,9.87-27.44.9-7.79.07-21.72-2.76-29-4.07-10.51-13-22.19-32.29-22.19H60c-19.34,0-28.21,11.68-32.29,22.19-2.83,7.31-3.65,21.24-2.76,29C26.13,78.84,30.8,89.11,34.82,96,39.55,104.18,50.45,112.8,60,112.8Z"/><path class="cls-3" d="M72.11,55.58a4,4,0,0,1,2.47-2.25,7.38,7.38,0,0,1,3.21-.42,7.09,7.09,0,0,1,3.1,1,4.47,4.47,0,0,1,2,2.57.46.46,0,0,1-.79.42l0,0a5.41,5.41,0,0,0-2.05-1.43,8.41,8.41,0,0,0-2.45-.55,9.35,9.35,0,0,0-2.54.12,4.42,4.42,0,0,0-2.18,1l-.06.05a.45.45,0,0,1-.73-.48Z"/><path class="cls-3" d="M47.41,56a4.42,4.42,0,0,0-2.18-1,9.35,9.35,0,0,0-2.54-.12,8.41,8.41,0,0,0-2.45.55,5.41,5.41,0,0,0-2.05,1.43l0,0a.46.46,0,0,1-.79-.42,4.47,4.47,0,0,1,2-2.57,7.09,7.09,0,0,1,3.1-1,7.38,7.38,0,0,1,3.21.42,4,4,0,0,1,2.47,2.25.45.45,0,0,1-.73.48Z"/></g><path id="clothes_default" class="cls-4" d="M101.08,128c-14.63-7.14-25.69-8.52-25.69-8.52h-.78v.07s-2.51,9-14.61,9-14.61-9-14.61-9v-.07H44.6S33.55,120.84,18.92,128,1.67,157.58,1.67,157.58H118.33S115.72,135.13,101.08,128Z"/></svg>