<svg xmlns="http://www.w3.org/2000/svg" viewBox="0 0 120 160"><defs><style>.cls-1{fill:#97c895;stroke:#3d3736;stroke-linecap:round;stroke-linejoin:round;stroke-width:3.13px;} .mainfill{fill:#97c895;} </style></defs><title>clothes</title><g id="clothes"><path class="cls-1 mainfill" d="M101.08,128a101.48,101.48,0,0,0-10.93-4.57L60,133l-30.15-9.6A101.49,101.49,0,0,0,18.92,128C4.28,135.13,1.67,157.58,1.67,157.58H118.33S115.72,135.13,101.08,128Z"/><path class="cls-1 mainfill" d="M60,133c-24.53,0-39.65-5.72-39.65-5.72,0-17.91,24-15.51,24-15.51l1,7.67s3.53,4,14.62,13.56"/><line class="cls-1 mainfill" x1="42.56" y1="116.46" x2="45.38" y2="119.47"/><line class="cls-1 mainfill" x1="47.95" y1="128.3" x2="47.95" y2="145.13"/><path class="cls-1 mainfill" d="M60.33,133C84.86,133,100,127.3,100,127.3c0-17.91-24-15.51-24-15.51l-1,7.67s-3.53,4-14.62,13.56"/><line class="cls-1 mainfill" x1="77.77" y1="116.46" x2="74.95" y2="119.47"/><line class="cls-1 mainfill" x1="72.38" y1="128.3" x2="72.38" y2="145.13"/></g></svg>